<?xml version="1.0" encoding="UTF-8"?>
<svg width="421px" height="428px" viewBox="47 38 421 428" xmlns="http://www.w3.org/2000/svg" xmlns:xlink="http://www.w3.org/1999/xlink" version="1.1">
 <!-- Generated by Pixelmator Pro 1.8 -->
 <g id="New-Group">
  <path id="Ellipse" d="M458 251 C458 138.886 367.114 48 255 48 142.886 48 52 138.886 52 251 52 363.114 142.886 454 255 454 367.114 454 458 363.114 458 251 Z" fill="#ffffff" fill-opacity="1" stroke="#000000" stroke-width="6.858" stroke-opacity="1" stroke-linejoin="round"/>
  <path id="Path-copy" d="M342.327 383.133 L379.36 382.676 366.559 157.273 C366.559 157.273 341.669 136.75 297.52 132.583 297.296 132.864 299.056 116.837 297.977 114.295 297.062 112.137 280.246 103.288 253.171 104.52 L253.171 110.241 C265.574 109.945 278.392 111.525 283.804 114.295 286.385 115.616 286.679 121.244 284.261 122.982 281.765 124.777 262.315 123.896 262.315 123.896 L260.029 365.759 C260.029 365.759 303.197 362.581 320.838 351.128 320.519 351.285 320.838 312.723 320.838 312.723 L296.606 317.752 296.149 308.608 321.295 304.493 322.667 253.743 C322.667 253.743 327.035 250.1 331.811 253.286 331.695 253.831 342.327 383.133 342.327 383.133 Z" fill="#000000" fill-opacity="1" stroke="none"/>
  <path id="Path-copy-1" d="M167.673 383.133 L130.64 382.676 143.441 157.273 C143.441 157.273 168.331 136.75 212.48 132.583 212.704 132.864 210.944 116.837 212.023 114.295 212.938 112.137 229.754 103.288 256.829 104.52 L256.829 110.241 C244.426 109.945 231.608 111.525 226.196 114.295 223.615 115.616 223.321 121.244 225.739 122.982 228.235 124.777 247.685 123.896 247.685 123.896 L249.971 365.759 C249.971 365.759 206.803 362.581 189.162 351.128 189.481 351.285 189.162 312.723 189.162 312.723 L213.394 317.752 213.851 308.608 188.705 304.493 187.333 253.743 C187.333 253.743 182.965 250.1 178.189 253.286 178.305 253.831 167.673 383.133 167.673 383.133 Z" fill="#000000" fill-opacity="1" stroke="none"/>
 </g>
</svg>
