<?xml version="1.0" encoding="UTF-8"?>
<svg width="441px" height="428px" viewBox="1342 38 441 428" xmlns="http://www.w3.org/2000/svg" xmlns:xlink="http://www.w3.org/1999/xlink" version="1.1">
 <!-- Generated by Pixelmator Pro 1.8 -->
 <g id="New-Group-copy-1">
  <defs>
   <path id="Path" d="M1764 251.5 C1764 139.662 1673.338 49 1561.5 49 1449.662 49 1359 139.662 1359 251.5 1359 363.338 1449.662 454 1561.5 454 1673.338 454 1764 363.338 1764 251.5 Z"/>
  </defs>
  <use id="Path-1" xlink:href="#Path" fill="#f4d676" fill-opacity="1" stroke="none"/>
  <defs>
   <path id="stroke-path" d="M1574.719 457.031 L1585.156 456.078 1600.453 453.75 1610.484 451.578 1620.344 448.906 1639.328 442.219 1657.438 433.766 1670.406 426.313 1686.672 415.031 1701.766 402.266 1715.578 388.125 1727.984 372.734 1738.891 356.156 1748.172 338.547 1754.047 324.656 1760.281 305.453 1763.734 290.516 1765.422 280.297 1766.609 269.922 1767.422 251.516 1767.016 238.297 1766.078 227.859 1764.641 217.578 1761.563 202.531 1758.906 192.672 1754.047 178.359 1750.234 169.031 1743.75 155.547 1736.297 142.594 1725.016 126.328 1712.25 111.234 1698.109 97.422 1682.719 85.016 1666.141 74.109 1648.531 64.828 1634.641 58.953 1615.438 52.719 1600.5 49.266 1590.281 47.578 1579.906 46.391 1561.5 45.578 1543.078 46.391 1532.703 47.578 1522.484 49.266 1507.547 52.719 1488.344 58.953 1474.453 64.828 1456.844 74.109 1440.266 85.016 1424.875 97.422 1410.734 111.234 1397.969 126.328 1386.688 142.594 1379.234 155.563 1370.781 173.672 1364.094 192.656 1361.422 202.516 1359.25 212.547 1356.922 227.844 1355.969 238.281 1355.578 248.875 1355.969 264.734 1357.563 280.281 1359.25 290.484 1361.438 300.516 1365.594 315.172 1372.734 333.969 1381.625 351.844 1392.125 368.672 1401.031 380.594 1414.141 395.359 1428.609 408.828 1444.313 420.859 1461.156 431.375 1479.031 440.266 1497.828 447.406 1512.484 451.563 1522.516 453.75 1532.719 455.438 1548.266 457.031 1564.125 457.422 Z"/>
  </defs>
  <use id="Path-2" stroke="#000000" stroke-opacity="1" stroke-linecap="round" fill="none" stroke-width="6.841" xlink:href="#stroke-path"/>
  <g id="New-Group-copy">
   <path id="Path-3" d="M1529.118 113.763 L1529.118 126.533 1550.098 127.902 1551.922 364.152 1572.902 363.696 1573.358 129.27 1598.899 126.533 1596.162 113.763 1570.166 108.29 1547.362 108.29 1529.118 113.763 Z" fill="#006cb7" fill-opacity="1" stroke="none"/>
   <path id="Path-4" d="M1495.368 303.037 L1495.824 322.143 1627.176 325.841 1627.632 303.037 1495.368 303.037 Z" fill="#006cb7" fill-opacity="1" stroke="none"/>
   <path id="Path-copy" d="M1474.389 383.307 L1437.446 382.851 1450.216 158.003 C1450.216 158.003 1475.045 137.532 1519.085 133.375 1519.308 133.655 1517.553 117.667 1518.629 115.131 1519.521 113.028 1535.563 104.551 1561.5 105.313 1587.437 104.551 1603.48 113.028 1604.372 115.131 1605.448 117.667 1603.692 133.655 1603.916 133.375 1647.955 137.532 1672.784 158.003 1672.784 158.003 L1685.554 382.851 1648.612 383.307 C1648.612 383.307 1638.006 254.323 1638.122 253.78 1633.358 250.602 1629 254.236 1629 254.236 L1627.632 304.861 1602.548 308.966 1603.004 318.088 1627.176 313.071 C1627.176 313.071 1626.858 351.538 1627.176 351.382 1609.578 362.806 1566.517 365.976 1566.517 365.976 L1568.797 124.709 C1568.797 124.709 1588.199 125.588 1590.689 123.797 1593.101 122.063 1592.808 116.449 1590.233 115.131 1585.365 112.64 1574.487 111.115 1563.325 111.055 L1563.325 111.087 C1562.717 111.073 1562.109 111.064 1561.5 111.059 1560.892 111.064 1560.283 111.073 1559.676 111.087 L1559.676 111.055 C1548.513 111.115 1537.636 112.64 1532.767 115.131 1530.192 116.449 1529.899 122.063 1532.311 123.797 1534.802 125.588 1554.203 124.709 1554.203 124.709 L1556.483 365.976 C1556.483 365.976 1513.422 362.806 1495.824 351.382 1496.143 351.538 1495.824 313.071 1495.824 313.071 L1519.997 318.088 1520.453 308.966 1495.368 304.861 1494 254.236 C1494 254.236 1489.643 250.602 1484.878 253.78 1484.994 254.323 1474.389 383.307 1474.389 383.307 Z" fill="#00bfd4" fill-opacity="1" stroke="none"/>
  </g>
 </g>
</svg>
