<?xml version="1.0" encoding="UTF-8"?>
<svg width="434px" height="428px" viewBox="471 38 434 428" xmlns="http://www.w3.org/2000/svg" xmlns:xlink="http://www.w3.org/1999/xlink" version="1.1">
 <!-- Generated by Pixelmator Pro 1.8 -->
 <g id="New-Group">
  <defs>
   <path id="Path" d="M890 246.5 C890 134.662 799.338 44 687.5 44 575.662 44 485 134.662 485 246.5 485 358.338 575.662 449 687.5 449 799.338 449 890 358.338 890 246.5 Z"/>
  </defs>
  <use id="Path-1" xlink:href="#Path" fill="#fbac19" fill-opacity="1" stroke="none"/>
  <defs>
   <path id="stroke-path" d="M711.109 451.094 L721.406 449.656 731.516 447.719 746.328 443.922 765.313 437.219 779.047 431.031 796.375 421.344 808.734 412.984 824.109 400.594 838.234 386.797 847.969 375.563 859.609 359.609 867.375 346.828 876.234 328.984 881.781 314.906 887.563 295.516 890.641 280.422 892.609 264.953 893.422 246.516 893.016 233.297 892.078 222.859 890.641 212.594 888.688 202.469 883.406 182.906 880.031 173.328 874.172 159.469 864.906 141.891 859.609 133.406 851.031 121.344 844.797 113.609 834.844 102.656 824.125 92.438 816.531 86.016 800.594 74.391 787.813 66.625 769.969 57.766 755.891 52.219 736.5 46.438 721.406 43.359 705.938 41.391 690.156 40.594 674.266 40.984 658.703 42.578 643.469 45.297 623.875 50.594 609.641 55.813 591.547 64.25 578.578 71.703 562.328 82.969 550.859 92.438 536.734 106.234 523.984 121.313 515.344 133.453 505.25 150.531 498.734 164.063 491.594 182.844 487.438 197.5 485.25 207.531 483.563 217.734 481.969 233.281 481.578 249.172 482.375 264.953 484.344 280.406 486.281 290.516 488.703 300.438 493.219 314.953 500.797 333.5 507.625 346.859 518.125 363.672 527.031 375.594 540.141 390.359 554.578 403.813 566.281 413.016 582.813 423.891 595.984 431.047 614.313 439.047 628.656 443.922 638.5 446.578 648.531 448.75 663.844 451.094 679.531 452.281 695.453 452.281 Z"/>
  </defs>
  <use id="Path-2" stroke="#000000" stroke-opacity="1" stroke-linecap="round" fill="none" stroke-width="6.841" xlink:href="#stroke-path"/>
  <path id="Path-copy" d="M621.927 438.146 C542.272 410.899 485 335.387 485 246.5 485 134.662 575.663 43.999 687.5 43.999 799.338 43.999 890 134.662 890 246.5 890 247.075 889.997 247.651 889.992 248.225 L798.784 153.003 748.615 148.442 610.422 241.483 571.71 276.309 573.024 319.929 563.446 377.395 621.927 438.146 Z" fill="#fecd06" fill-opacity="1" stroke="none"/>
  <g id="New-Group-copy">
   <path id="Path-3" d="M655.118 108.763 L655.118 121.533 676.098 122.902 677.922 359.152 698.902 358.696 699.358 124.27 724.899 121.533 722.162 108.763 696.166 103.29 673.362 103.29 655.118 108.763 Z" fill="#004c2d" fill-opacity="1" stroke="none"/>
   <path id="Path-4" d="M621.368 298.037 L621.824 317.143 753.176 320.841 753.632 298.037 621.368 298.037 Z" fill="#004c2d" fill-opacity="1" stroke="none"/>
   <path id="Path-copy-1" d="M600.389 378.307 L563.446 377.851 576.216 153.003 C576.216 153.003 601.045 132.532 645.085 128.375 645.308 128.655 643.553 112.667 644.629 110.131 645.521 108.028 661.563 99.551 687.5 100.313 713.437 99.551 729.48 108.028 730.372 110.131 731.448 112.667 729.692 128.655 729.916 128.375 773.955 132.532 798.784 153.003 798.784 153.003 L811.554 377.851 774.612 378.307 C774.612 378.307 764.006 249.323 764.122 248.78 759.358 245.602 755 249.236 755 249.236 L753.632 299.861 728.548 303.966 729.004 313.088 753.176 308.071 C753.176 308.071 752.858 346.538 753.176 346.382 735.578 357.806 692.517 360.976 692.517 360.976 L694.797 119.709 C694.797 119.709 714.199 120.588 716.689 118.797 719.101 117.063 718.808 111.449 716.233 110.131 711.365 107.64 700.487 106.115 689.325 106.055 L689.325 106.087 C688.717 106.073 688.109 106.064 687.5 106.059 686.892 106.064 686.283 106.073 685.676 106.087 L685.676 106.055 C674.513 106.115 663.636 107.64 658.767 110.131 656.192 111.449 655.899 117.063 658.311 118.797 660.802 120.588 680.203 119.709 680.203 119.709 L682.483 360.976 C682.483 360.976 639.422 357.806 621.824 346.382 622.143 346.538 621.824 308.071 621.824 308.071 L645.997 313.088 646.453 303.966 621.368 299.861 620 249.236 C620 249.236 615.643 245.602 610.878 248.78 610.994 249.323 600.389 378.307 600.389 378.307 Z" fill="#009247" fill-opacity="1" stroke="none"/>
  </g>
 </g>
</svg>
