<?xml version="1.0" encoding="UTF-8"?>
<svg width="437px" height="428px" viewBox="905 38 437 428" xmlns="http://www.w3.org/2000/svg" xmlns:xlink="http://www.w3.org/1999/xlink" version="1.1">
 <!-- Generated by Pixelmator Pro 1.8 -->
 <g id="New-Group-copy">
  <defs>
   <path id="Path" d="M1324 251.5 C1324 139.662 1233.338 49 1121.5 49 1009.662 49 919 139.662 919 251.5 919 363.338 1009.662 454 1121.5 454 1233.338 454 1324 363.338 1324 251.5 Z"/>
  </defs>
  <use id="Path-1" xlink:href="#Path" fill="#fecd06" fill-opacity="1" stroke="none"/>
  <defs>
   <path id="stroke-path" d="M1134.703 457.031 L1145.141 456.094 1155.422 454.656 1170.5 451.578 1189.891 445.797 1203.969 440.25 1221.813 431.391 1234.594 423.625 1250.563 411.984 1265.344 398.859 1278.813 384.391 1290.844 368.688 1301.359 351.844 1310.234 333.984 1315.781 319.906 1321.563 300.516 1324.641 285.422 1326.609 269.953 1327.422 251.5 1326.609 233.063 1324.641 217.594 1321.563 202.516 1317.391 187.859 1312.203 173.672 1306.016 159.984 1298.875 146.828 1287.984 130.281 1275.578 114.891 1261.766 100.75 1246.688 88 1234.547 79.359 1217.469 69.266 1203.938 62.75 1185.156 55.609 1170.5 51.453 1160.469 49.266 1150.266 47.578 1134.719 45.984 1118.859 45.594 1108.266 45.984 1097.828 46.938 1082.531 49.266 1072.5 51.438 1062.656 54.094 1048.313 58.969 1029.984 66.969 1016.813 74.125 1000.266 85.016 984.875 97.422 970.734 111.234 957.969 126.328 946.672 142.609 936.969 159.953 930.781 173.688 924.078 192.672 920.281 207.484 918.344 217.594 916.906 227.891 915.719 243.547 915.719 259.453 916.375 269.953 917.563 280.328 920.281 295.531 925.578 315.125 930.797 329.359 939.234 347.469 949.359 364.578 961.016 380.578 974.141 395.359 988.609 408.828 1004.297 420.844 1016.859 428.906 1034.453 438.188 1048.344 444.063 1067.547 450.297 1082.484 453.75 1092.703 455.438 1103.063 456.625 1118.828 457.422 Z"/>
  </defs>
  <use id="Path-2" stroke="#000000" stroke-opacity="1" stroke-linecap="round" fill="none" stroke-width="6.841" xlink:href="#stroke-path"/>
  <g id="New-Group-copy-1">
   <path id="Path-3" d="M1089.118 113.763 L1089.118 126.533 1110.098 127.902 1111.922 364.152 1132.902 363.696 1133.358 129.27 1158.899 126.533 1156.162 113.763 1130.166 108.29 1107.362 108.29 1089.118 113.763 Z" fill="#004c2d" fill-opacity="1" stroke="none"/>
   <path id="Path-4" d="M1055.368 303.037 L1055.824 322.143 1187.176 325.841 1187.632 303.037 1055.368 303.037 Z" fill="#004c2d" fill-opacity="1" stroke="none"/>
   <path id="Path-copy" d="M1034.389 383.307 L997.446 382.851 1010.216 158.003 C1010.216 158.003 1035.045 137.532 1079.085 133.375 1079.308 133.655 1077.553 117.667 1078.629 115.131 1079.521 113.028 1095.563 104.551 1121.5 105.313 1147.437 104.551 1163.48 113.028 1164.372 115.131 1165.448 117.667 1163.692 133.655 1163.916 133.375 1207.955 137.532 1232.784 158.003 1232.784 158.003 L1245.554 382.851 1208.612 383.307 C1208.612 383.307 1198.006 254.323 1198.122 253.78 1193.358 250.602 1189 254.236 1189 254.236 L1187.632 304.861 1162.548 308.966 1163.004 318.088 1187.176 313.071 C1187.176 313.071 1186.858 351.538 1187.176 351.382 1169.578 362.806 1126.517 365.976 1126.517 365.976 L1128.797 124.709 C1128.797 124.709 1148.199 125.588 1150.689 123.797 1153.101 122.063 1152.808 116.449 1150.233 115.131 1145.365 112.64 1134.487 111.115 1123.325 111.055 L1123.325 111.087 C1122.717 111.073 1122.109 111.064 1121.5 111.059 1120.892 111.064 1120.283 111.073 1119.676 111.087 L1119.676 111.055 C1108.513 111.115 1097.636 112.64 1092.767 115.131 1090.192 116.449 1089.899 122.063 1092.311 123.797 1094.802 125.588 1114.203 124.709 1114.203 124.709 L1116.483 365.976 C1116.483 365.976 1073.422 362.806 1055.824 351.382 1056.143 351.538 1055.824 313.071 1055.824 313.071 L1079.997 318.088 1080.453 308.966 1055.368 304.861 1054 254.236 C1054 254.236 1049.643 250.602 1044.878 253.78 1044.994 254.323 1034.389 383.307 1034.389 383.307 Z" fill="#009247" fill-opacity="1" stroke="none"/>
  </g>
 </g>
</svg>
